<svg xmlns="http://www.w3.org/2000/svg" fill="none" viewBox="0 2.78 38 32.41">
<rect y="5" width="38" height="11" fill="#E7F0D7"></rect>
<rect y="23" width="38" height="11" fill="#FFF0D2"></rect>
<path d="M9.82812 13.0352H4.42773L3.16797 17H1.99609L6.61523 2.78125H7.66992L12.2598 17H11.0879L9.82812 13.0352ZM4.75977 11.9902H9.50586L7.14258 4.53906L4.75977 11.9902ZM14.75 17V2.78125H18.1777C18.7311 2.79427 19.2487 2.86914 19.7305 3.00586C20.2188 3.14258 20.6647 3.33138 21.0684 3.57227C21.5566 3.85221 21.9863 4.20052 22.3574 4.61719C22.7285 5.02734 23.0345 5.48958 23.2754 6.00391C23.4967 6.47266 23.666 6.97721 23.7832 7.51758C23.9069 8.05143 23.972 8.61133 23.9785 9.19727V10.5938C23.9785 11.1602 23.9199 11.7103 23.8027 12.2441C23.6855 12.778 23.5163 13.276 23.2949 13.7383C23.0736 14.207 22.7969 14.64 22.4648 15.0371C22.1393 15.4342 21.7682 15.7728 21.3516 16.0527C20.9219 16.3457 20.4401 16.5736 19.9062 16.7363C19.3724 16.8991 18.7962 16.987 18.1777 17H14.75ZM15.9121 3.78711V16.0039H18.1777C18.6921 15.9909 19.1641 15.916 19.5938 15.7793C20.0234 15.6361 20.4076 15.4408 20.7461 15.1934C21.0977 14.946 21.4069 14.6465 21.6738 14.2949C21.9408 13.9434 22.1589 13.556 22.3281 13.1328C22.4844 12.7487 22.6016 12.3418 22.6797 11.9121C22.7643 11.4824 22.8099 11.043 22.8164 10.5938V9.16797C22.8099 8.71224 22.7611 8.26628 22.6699 7.83008C22.5853 7.39388 22.4616 6.98047 22.2988 6.58984C22.097 6.11458 21.8333 5.68164 21.5078 5.29102C21.1823 4.89388 20.7949 4.57487 20.3457 4.33398C20.0462 4.16471 19.7142 4.03451 19.3496 3.94336C18.985 3.8457 18.5944 3.79362 18.1777 3.78711H15.9121ZM30.4434 17L25.8926 2.78125H27.123L30.7656 14.5098L30.9805 15.2324L31.1953 14.5L34.8477 2.78125H36.0879L31.5273 17H30.4434ZM10.668 31.5039C10.6745 31.0026 10.5638 30.5794 10.3359 30.2344C10.1146 29.8828 9.83138 29.5866 9.48633 29.3457C9.13477 29.1113 8.7474 28.9128 8.32422 28.75C7.90104 28.5872 7.49089 28.444 7.09375 28.3203C6.61849 28.1706 6.13021 27.9915 5.62891 27.7832C5.1276 27.5749 4.67513 27.3242 4.27148 27.0312C3.82878 26.7122 3.46745 26.3314 3.1875 25.8887C2.90755 25.446 2.76432 24.9023 2.75781 24.2578C2.75781 23.6654 2.88802 23.1413 3.14844 22.6855C3.41536 22.2233 3.76042 21.8359 4.18359 21.5234C4.60677 21.2174 5.08529 20.9863 5.61914 20.8301C6.15299 20.6673 6.6901 20.5859 7.23047 20.5859C7.83594 20.5859 8.40885 20.6868 8.94922 20.8887C9.49609 21.084 9.97461 21.3607 10.3848 21.7188C10.8014 22.0768 11.1335 22.513 11.3809 23.0273C11.6283 23.5352 11.7617 24.1016 11.7812 24.7266H10.5996C10.5475 24.2643 10.4336 23.8444 10.2578 23.4668C10.082 23.0827 9.84766 22.7539 9.55469 22.4805C9.26823 22.207 8.92643 21.9954 8.5293 21.8457C8.13867 21.696 7.70573 21.6211 7.23047 21.6211C6.83333 21.6211 6.43945 21.6764 6.04883 21.7871C5.6582 21.8913 5.3099 22.0508 5.00391 22.2656C4.69141 22.487 4.4375 22.7604 4.24219 23.0859C4.05339 23.4115 3.95898 23.7956 3.95898 24.2383C3.95898 24.7135 4.06966 25.1172 4.29102 25.4492C4.51237 25.7747 4.79557 26.0514 5.14062 26.2793C5.47917 26.5072 5.85677 26.6992 6.27344 26.8555C6.6901 27.0052 7.08724 27.1387 7.46484 27.2559C7.97917 27.4121 8.49674 27.6042 9.01758 27.832C9.54492 28.0534 10.0267 28.3301 10.4629 28.6621C10.8796 28.9876 11.2181 29.3848 11.4785 29.8535C11.7454 30.3158 11.8789 30.8594 11.8789 31.4844C11.8789 32.1094 11.7422 32.653 11.4688 33.1152C11.2018 33.5775 10.8535 33.9616 10.4238 34.2676C9.99414 34.5801 9.50586 34.8145 8.95898 34.9707C8.41211 35.1204 7.85872 35.1953 7.29883 35.1953C6.63477 35.1953 5.98698 35.0911 5.35547 34.8828C4.73047 34.668 4.18685 34.3555 3.72461 33.9453C3.30794 33.5938 2.97917 33.1738 2.73828 32.6855C2.4974 32.1973 2.36393 31.6504 2.33789 31.0449H3.51953C3.57812 31.5527 3.71159 32.002 3.91992 32.3926C4.13477 32.7767 4.41146 33.1022 4.75 33.3691C5.08203 33.6361 5.46289 33.8379 5.89258 33.9746C6.32878 34.1048 6.79753 34.1699 7.29883 34.1699C7.71549 34.1699 8.12565 34.1178 8.5293 34.0137C8.93294 33.9095 9.29102 33.7467 9.60352 33.5254C9.92253 33.3105 10.1797 33.0371 10.375 32.7051C10.5703 32.3665 10.668 31.9661 10.668 31.5039ZM19.6719 29.0527H16.1562V35H15.0039V20.7812H19.0176C19.6426 20.7943 20.2318 20.8952 20.7852 21.084C21.3385 21.2728 21.8236 21.543 22.2402 21.8945C22.6504 22.2526 22.9727 22.6888 23.207 23.2031C23.4479 23.7109 23.5684 24.2969 23.5684 24.9609C23.5684 25.4427 23.4967 25.8789 23.3535 26.2695C23.2168 26.6602 23.0247 27.015 22.7773 27.334C22.5299 27.6465 22.2337 27.9232 21.8887 28.1641C21.5436 28.4049 21.166 28.61 20.7559 28.7793L24.0078 34.873V35H22.7871L19.6719 29.0527ZM16.1562 28.0566H19.2617C19.7044 28.0436 20.1146 27.9622 20.4922 27.8125C20.8763 27.6562 21.2116 27.4414 21.498 27.168C21.778 26.8945 21.9961 26.5723 22.1523 26.2012C22.3151 25.8236 22.3965 25.4069 22.3965 24.9512C22.3965 24.4564 22.3086 24.0137 22.1328 23.623C21.9635 23.2324 21.7259 22.9004 21.4199 22.627C21.1204 22.36 20.7624 22.1549 20.3457 22.0117C19.9355 21.8685 19.4928 21.7936 19.0176 21.7871H16.1562V28.0566ZM30.8828 28.5254L34.6816 20.7812H36.0098L31.4492 29.6484L31.4297 35H30.3457L30.3262 29.6484L25.7656 20.7812H27.1133L30.8828 28.5254Z" fill="black" data-index="0" style="visibility: visible; opacity: 1;"></path>
</svg>